<svg xmlns="http://www.w3.org/2000/svg" xmlns:xlink="http://www.w3.org/1999/xlink" contentStyleType="text/css" data-diagram-type="DESCRIPTION" height="1373px" preserveAspectRatio="none" style="width:1163px;height:1373px;background:#FFFFFF;" version="1.1" viewBox="0 0 1163 1373" width="1163px" zoomAndPan="magnify"><?plantuml 1.2026.6?><defs/><g><g class="title" data-source-line="23"><text fill="#000000" font-family="sans-serif" font-size="18" font-weight="700" lengthAdjust="spacing" textLength="388.5469" x="384.0266" y="26.708">SSE &#8212; Diagramme de Cas d'Utilisation</text><text fill="#666666" font-family="sans-serif" font-size="11" font-weight="700" lengthAdjust="spacing" textLength="347.4023" x="404.5988" y="41.1636">G&#233;n&#233;ralisation d'acteurs (h&#233;ritage) &#8212; version simplifi&#233;e</text></g><!--cluster Fonctions communes (h?rit?es par tous)--><g class="cluster" data-qualified-name="Fonctions communes .h.rit.es par tous." data-source-line="42" id="ent0009"><rect fill="#F7FAFC" height="480" rx="2.5" ry="2.5" style="stroke:#A0AEC0;stroke-width:1;" width="336" x="519.71" y="384.7578"/><text fill="#000000" font-family="sans-serif" font-size="14" font-weight="700" lengthAdjust="spacing" textLength="320.168" x="527.626" y="399.7529">Fonctions communes (h&#233;rit&#233;es par tous)</text></g><!--cluster Responsable d'organisme--><g class="cluster" data-qualified-name="Responsable d.organisme" data-source-line="60" id="ent0022"><rect fill="#F7FAFC" height="168" rx="2.5" ry="2.5" style="stroke:#A0AEC0;stroke-width:1;" width="967.89" x="181.71" y="61.7578"/><text fill="#000000" font-family="sans-serif" font-size="14" font-weight="700" lengthAdjust="spacing" textLength="202.665" x="564.3225" y="76.7529">Responsable d'organisme</text></g><!--cluster Administrateur--><g class="cluster" data-qualified-name="Administrateur" data-source-line="74" id="ent0032"><rect fill="#F7FAFC" height="564" rx="2.5" ry="2.5" style="stroke:#A0AEC0;stroke-width:1;" width="264.67" x="158.04" y="676.7578"/><text fill="#000000" font-family="sans-serif" font-size="14" font-weight="700" lengthAdjust="spacing" textLength="119.4443" x="230.6528" y="691.7529">Administrateur</text></g><!--cluster Gouvernement--><g class="cluster" data-qualified-name="Gouvernement" data-source-line="94" id="ent0048"><rect fill="#F7FAFC" height="95" rx="2.5" ry="2.5" style="stroke:#A0AEC0;stroke-width:1;" width="225.18" x="177.79" y="1264.7578"/><text fill="#000000" font-family="sans-serif" font-size="14" font-weight="700" lengthAdjust="spacing" textLength="116.8057" x="231.9772" y="1279.7529">Gouvernement</text></g><!--cluster Visiteur (non authentifi?)--><g class="cluster" data-qualified-name="Visiteur .non authentifi.." data-source-line="101" id="ent0051"><rect fill="#F7FAFC" height="107" rx="2.5" ry="2.5" style="stroke:#A0AEC0;stroke-width:1;" width="283.76" x="545.33" y="253.7578"/><text fill="#000000" font-family="sans-serif" font-size="14" font-weight="700" lengthAdjust="spacing" textLength="201.332" x="586.544" y="268.7529">Visiteur (non authentifi&#233;)</text></g><!--entity UC_Login--><g class="entity" data-qualified-name="Fonctions communes .h.rit.es par tous..UC_Login" data-source-line="43" id="ent0010"><ellipse cx="687.2065" cy="434.7571" fill="#EBF4FF" rx="64.4965" ry="15.2993" style="stroke:#2C5282;stroke-width:0.5;"/><text fill="#000000" font-family="sans-serif" font-size="14" lengthAdjust="spacing" textLength="92.1279" x="641.1425" y="439.4055">Se connecter</text></g><!--entity UC_Profile--><g class="entity" data-qualified-name="Fonctions communes .h.rit.es par tous..UC_Profile" data-source-line="44" id="ent0011"><ellipse cx="687.2121" cy="503.7602" fill="#EBF4FF" rx="82.5621" ry="18.9124" style="stroke:#2C5282;stroke-width:0.5;"/><text fill="#000000" font-family="sans-serif" font-size="14" lengthAdjust="spacing" textLength="136.6777" x="618.8732" y="508.4087">Consulter son profil</text></g><!--entity UC_Ref--><g class="entity" data-qualified-name="Fonctions communes .h.rit.es par tous..UC_Ref" data-source-line="45" id="ent0012"><ellipse cx="687.2061" cy="578.753" fill="#EBF4FF" rx="93.4761" ry="21.0952" style="stroke:#2C5282;stroke-width:0.5;"/><text fill="#000000" font-family="sans-serif" font-size="14" lengthAdjust="spacing" textLength="161.5674" x="606.4224" y="583.4015">Consulter le r&#233;f&#233;rentiel</text></g><!--entity UC_ViewEval--><g class="entity" data-qualified-name="Fonctions communes .h.rit.es par tous..UC_ViewEval" data-source-line="46" id="ent0013"><ellipse cx="687.2054" cy="826.7549" fill="#EBF4FF" rx="99.9854" ry="22.3971" style="stroke:#2C5282;stroke-width:0.5;"/><text fill="#000000" font-family="sans-serif" font-size="14" lengthAdjust="spacing" textLength="176.0254" x="599.1927" y="831.4033">Consulter une &#233;valuation</text></g><!--entity UC_Notif--><g class="entity" data-qualified-name="Fonctions communes .h.rit.es par tous..UC_Notif" data-source-line="47" id="ent0014"><ellipse cx="687.2066" cy="657.7551" fill="#EBF4FF" rx="102.1866" ry="22.8373" style="stroke:#2C5282;stroke-width:0.5;"/><text fill="#000000" font-family="sans-serif" font-size="14" lengthAdjust="spacing" textLength="180.8652" x="596.774" y="662.4036">Recevoir des notifications</text></g><!--entity UC_Export--><g class="entity" data-qualified-name="Fonctions communes .h.rit.es par tous..UC_Export" data-source-line="48" id="ent0015"><ellipse cx="687.2065" cy="742.7531" fill="#EBF4FF" rx="121.9265" ry="26.7853" style="stroke:#2C5282;stroke-width:0.5;"/><text fill="#000000" font-family="sans-serif" font-size="14" lengthAdjust="spacing" textLength="223.46" x="575.4765" y="747.4016">Exporter un rapport (PDF/Excel)</text></g><!--entity UC_Create--><g class="entity" data-qualified-name="Responsable d.organisme.UC_Create" data-source-line="61" id="ent0023"><ellipse cx="290.3762" cy="116.761" fill="#EBF4FF" rx="87.2162" ry="19.8432" style="stroke:#2C5282;stroke-width:0.5;"/><text fill="#000000" font-family="sans-serif" font-size="14" lengthAdjust="spacing" textLength="147.4102" x="216.6711" y="121.4095">Cr&#233;er une &#233;valuation</text></g><!--entity UC_Fill--><g class="entity" data-qualified-name="Responsable d.organisme.UC_Fill" data-source-line="62" id="ent0024"><ellipse cx="687.2138" cy="178.7546" fill="#EBF4FF" rx="87.0338" ry="19.8068" style="stroke:#2C5282;stroke-width:0.5;"/><text fill="#000000" font-family="sans-serif" font-size="14" lengthAdjust="spacing" textLength="146.9932" x="613.7172" y="183.403">Remplir les r&#233;ponses</text></g><!--entity UC_Upload--><g class="entity" data-qualified-name="Responsable d.organisme.UC_Upload" data-source-line="63" id="ent0025"><ellipse cx="1050.1646" cy="178.7567" fill="#EBF4FF" rx="83.4446" ry="19.0889" style="stroke:#2C5282;stroke-width:0.5;"/><text fill="#000000" font-family="sans-serif" font-size="14" lengthAdjust="spacing" textLength="138.7285" x="980.8003" y="183.4052">Joindre des preuves</text></g><!--entity UC_Submit--><g class="entity" data-qualified-name="Responsable d.organisme.UC_Submit" data-source-line="64" id="ent0026"><ellipse cx="290.3753" cy="192.7609" fill="#EBF4FF" rx="92.6653" ry="20.9331" style="stroke:#2C5282;stroke-width:0.5;"/><text fill="#000000" font-family="sans-serif" font-size="14" lengthAdjust="spacing" textLength="159.749" x="210.5008" y="197.4093">Soumettre l'&#233;valuation</text></g><!--entity UC_Users--><g class="entity" data-qualified-name="Administrateur.UC_Users" data-source-line="75" id="ent0033"><ellipse cx="290.3832" cy="1204.7564" fill="#EBF4FF" rx="86.6932" ry="19.7386" style="stroke:#2C5282;stroke-width:0.5;"/><text fill="#000000" font-family="sans-serif" font-size="14" lengthAdjust="spacing" textLength="146.2139" x="217.2763" y="1209.4049">G&#233;rer les utilisateurs</text></g><!--entity UC_Org--><g class="entity" data-qualified-name="Administrateur.UC_Org" data-source-line="76" id="ent0034"><ellipse cx="290.3781" cy="731.7594" fill="#EBF4FF" rx="88.2081" ry="20.0416" style="stroke:#2C5282;stroke-width:0.5;"/><text fill="#000000" font-family="sans-serif" font-size="14" lengthAdjust="spacing" textLength="149.6729" x="215.5417" y="736.4079">G&#233;rer les organismes</text></g><!--entity UC_Validate--><g class="entity" data-qualified-name="Administrateur.UC_Validate" data-source-line="77" id="ent0035"><ellipse cx="290.3762" cy="807.7531" fill="#EBF4FF" rx="91.9262" ry="20.7852" style="stroke:#2C5282;stroke-width:0.5;"/><text fill="#000000" font-family="sans-serif" font-size="14" lengthAdjust="spacing" textLength="158.0879" x="211.3323" y="812.4015">Valider une &#233;valuation</text></g><!--entity UC_Reject--><g class="entity" data-qualified-name="Administrateur.UC_Reject" data-source-line="78" id="ent0036"><ellipse cx="290.3751" cy="888.7548" fill="#EBF4FF" rx="116.3351" ry="25.667" style="stroke:#2C5282;stroke-width:0.5;"/><text fill="#000000" font-family="sans-serif" font-size="14" lengthAdjust="spacing" textLength="211.5176" x="184.6163" y="893.4033">Rejeter / demander correction</text></g><!--entity UC_ManageRef--><g class="entity" data-qualified-name="Administrateur.UC_ManageRef" data-source-line="79" id="ent0037"><ellipse cx="290.3759" cy="967.753" fill="#EBF4FF" rx="81.4259" ry="18.6852" style="stroke:#2C5282;stroke-width:0.5;"/><text fill="#000000" font-family="sans-serif" font-size="14" lengthAdjust="spacing" textLength="134.0254" x="223.3632" y="972.4014">G&#233;rer le r&#233;f&#233;rentiel</text></g><!--entity UC_KPI--><g class="entity" data-qualified-name="Administrateur.UC_KPI" data-source-line="80" id="ent0038"><ellipse cx="290.3822" cy="1045.7583" fill="#EBF4FF" rx="110.9522" ry="24.5904" style="stroke:#2C5282;stroke-width:0.5;"/><text fill="#000000" font-family="sans-serif" font-size="14" lengthAdjust="spacing" textLength="199.9375" x="190.4134" y="1050.4067">Consulter le tableau de bord</text></g><!--entity UC_Send--><g class="entity" data-qualified-name="Administrateur.UC_Send" data-source-line="81" id="ent0039"><ellipse cx="290.3771" cy="1127.7592" fill="#EBF4FF" rx="97.8071" ry="21.9614" style="stroke:#2C5282;stroke-width:0.5;"/><text fill="#000000" font-family="sans-serif" font-size="14" lengthAdjust="spacing" textLength="171.2129" x="204.7707" y="1132.4077">Envoyer une notification</text></g><!--entity UC_Ranking--><g class="entity" data-qualified-name="Gouvernement.UC_Ranking" data-source-line="95" id="ent0049"><ellipse cx="290.3798" cy="1321.7558" fill="#EBF4FF" rx="96.5898" ry="21.718" style="stroke:#2C5282;stroke-width:0.5;"/><text fill="#000000" font-family="sans-serif" font-size="14" lengthAdjust="spacing" textLength="168.5127" x="206.1235" y="1326.4042">Consulter le classement</text></g><!--entity UC_Request--><g class="entity" data-qualified-name="Visiteur .non authentifi...UC_Request" data-source-line="102" id="ent0052"><ellipse cx="687.2114" cy="316.7541" fill="#EBF4FF" rx="125.8814" ry="27.5763" style="stroke:#2C5282;stroke-width:0.5;"/><text fill="#000000" font-family="sans-serif" font-size="14" lengthAdjust="spacing" textLength="231.8613" x="571.2808" y="321.4025">Demander la cr&#233;ation de compte</text></g><!--entity Visiteur--><g class="entity" data-qualified-name="Visiteur" data-source-line="26" id="ent0001"><ellipse cx="290.3809" cy="348.1078" fill="#F0FFF4" rx="8" ry="8" style="stroke:#276749;stroke-width:0.5;"/><path d="M290.3809,356.1078 L290.3809,383.1078 M277.3809,364.1078 L303.3809,364.1078 M290.3809,383.1078 L277.3809,398.1078 M290.3809,383.1078 L303.3809,398.1078" fill="none" style="stroke:#276749;stroke-width:0.5;"/><text fill="#000000" font-family="sans-serif" font-size="14" lengthAdjust="spacing" textLength="53.3818" x="263.69" y="412.6029">Visiteur</text></g><!--entity U--><g class="entity" data-qualified-name="U" data-source-line="29" id="ent0002"><ellipse cx="290.3757" cy="576.9578" fill="#F0FFF4" rx="8" ry="8" style="stroke:#276749;stroke-width:0.5;"/><path d="M290.3757,584.9578 L290.3757,611.9578 M277.3757,592.9578 L303.3757,592.9578 M290.3757,611.9578 L277.3757,626.9578 M290.3757,611.9578 L303.3757,626.9578" fill="none" style="stroke:#276749;stroke-width:0.5;"/><text fill="#000000" font-family="sans-serif" font-size="14" lengthAdjust="spacing" textLength="72.0098" x="252.32" y="641.4529">Utilisateur</text><text fill="#000000" font-family="sans-serif" font-size="14" lengthAdjust="spacing" textLength="76.1113" x="252.32" y="657.7498">authentifi&#233;</text></g><!--entity Responsable--><g class="entity" data-qualified-name="Responsable" data-source-line="32" id="ent0003"><ellipse cx="58.5213" cy="209.1078" fill="#F0FFF4" rx="8" ry="8" style="stroke:#276749;stroke-width:0.5;"/><path d="M58.5213,217.1078 L58.5213,244.1078 M45.5213,225.1078 L71.5213,225.1078 M58.5213,244.1078 L45.5213,259.1078 M58.5213,244.1078 L71.5213,259.1078" fill="none" style="stroke:#276749;stroke-width:0.5;"/><text fill="#000000" font-family="sans-serif" font-size="14" lengthAdjust="spacing" textLength="89.2227" x="13.91" y="273.6029">Responsable</text></g><!--entity Admin--><g class="entity" data-qualified-name="Admin" data-source-line="33" id="ent0004"><ellipse cx="58.5218" cy="887.1078" fill="#F0FFF4" rx="8" ry="8" style="stroke:#276749;stroke-width:0.5;"/><path d="M58.5218,895.1078 L58.5218,922.1078 M45.5218,903.1078 L71.5218,903.1078 M58.5218,922.1078 L45.5218,937.1078 M58.5218,922.1078 L71.5218,937.1078" fill="none" style="stroke:#276749;stroke-width:0.5;"/><text fill="#000000" font-family="sans-serif" font-size="14" lengthAdjust="spacing" textLength="104.6035" x="6.22" y="951.6029">Administrateur</text></g><!--entity Gouv--><g class="entity" data-qualified-name="Gouv" data-source-line="34" id="ent0005"><ellipse cx="58.5205" cy="1024.1078" fill="#F0FFF4" rx="8" ry="8" style="stroke:#276749;stroke-width:0.5;"/><path d="M58.5205,1032.1078 L58.5205,1059.1078 M45.5205,1040.1078 L71.5205,1040.1078 M58.5205,1059.1078 L45.5205,1074.1078 M58.5205,1059.1078 L71.5205,1074.1078" fill="none" style="stroke:#276749;stroke-width:0.5;"/><text fill="#000000" font-family="sans-serif" font-size="14" lengthAdjust="spacing" textLength="105.041" x="6" y="1088.6029">Gouvernement</text></g><!--link Responsable to U--><g class="link" data-entity-1="ent0003" data-entity-2="ent0002" data-link-type="extension" data-source-line="37" id="lnk6"><path d="M74.34,277.0378 C90.59,317.3078 118.58,381.9078 150.04,433.7578 C180.38,483.7678 210.4238,522.4625 240.2738,557.9525" fill="none" id="Responsable-to-U" style="stroke:#2D3748;stroke-width:1;"/><polygon fill="none" points="251.86,571.7278,244.8656,554.0904,235.682,561.8145,251.86,571.7278" style="stroke:#2D3748;stroke-width:1;stroke-linejoin:miter;stroke-miterlimit:10;"/></g><!--link Admin to U--><g class="link" data-entity-1="ent0004" data-entity-2="ent0002" data-link-type="extension" data-source-line="38" id="lnk7"><path d="M67.24,878.3578 C78.44,830.8178 103.21,749.5378 150.04,695.7578 C177.7,663.9978 204.4066,648.5872 235.3966,635.5072" fill="none" id="Admin-to-U" style="stroke:#2D3748;stroke-width:1;"/><polygon fill="none" points="251.98,628.5078,233.0635,629.9794,237.7297,641.035,251.98,628.5078" style="stroke:#2D3748;stroke-width:1;stroke-linejoin:miter;stroke-miterlimit:10;"/></g><!--link Gouv to U--><g class="link" data-entity-1="ent0005" data-entity-2="ent0002" data-link-type="extension" data-source-line="39" id="lnk8"><path d="M88.79,1015.1578 C97.24,1002.2778 105.62,987.4578 111.04,972.7578 C121.79,943.5978 132.7,721.5478 150.04,695.7578 C174.09,659.9978 202.7276,644.1372 235.1976,632.2472" fill="none" id="Gouv-to-U" style="stroke:#2D3748;stroke-width:1;"/><polygon fill="none" points="252.1,626.0578,233.1345,626.6131,237.2607,637.8813,252.1,626.0578" style="stroke:#2D3748;stroke-width:1;stroke-linejoin:miter;stroke-miterlimit:10;"/></g><!--link U to UC_Login--><g class="link" data-entity-1="ent0002" data-entity-2="ent0010" data-link-type="dependency" data-source-line="51" id="lnk16"><path d="M328.86,582.7978 C370.67,548.8978 441.68,496.3478 511.71,467.7578 C548.25,452.8378 586.9124,445.2375 621.4024,440.7175" fill="none" id="U-to-UC_Login" style="stroke:#2D3748;stroke-width:1;"/><polygon fill="#2D3748" points="626.36,440.0678,616.9165,437.2712,621.4024,440.7175,617.9561,445.2034,626.36,440.0678" style="stroke:#2D3748;stroke-width:1;stroke-linejoin:miter;stroke-miterlimit:10;"/></g><!--link U to UC_Profile--><g class="link" data-entity-1="ent0002" data-entity-2="ent0011" data-link-type="dependency" data-source-line="52" id="lnk17"><path d="M328.75,600.4378 C372.23,584.1578 446.4,557.5378 511.71,539.7578 C547.38,530.0478 582.8588,522.4959 615.7888,516.2059" fill="none" id="U-to-UC_Profile" style="stroke:#2D3748;stroke-width:1;"/><polygon fill="#2D3748" points="620.7,515.2678,611.1093,513.0274,615.7888,516.2059,612.6103,520.8854,620.7,515.2678" style="stroke:#2D3748;stroke-width:1;stroke-linejoin:miter;stroke-miterlimit:10;"/></g><!--link U to UC_Ref--><g class="link" data-entity-1="ent0002" data-entity-2="ent0012" data-link-type="dependency" data-source-line="53" id="lnk18"><path d="M328.88,611.3378 C390.67,605.7078 510.4606,594.7816 594.9506,587.0816" fill="none" id="U-to-UC_Ref" style="stroke:#2D3748;stroke-width:1;"/><polygon fill="#2D3748" points="599.93,586.6278,590.6041,583.4612,594.9506,587.0816,591.3302,591.4281,599.93,586.6278" style="stroke:#2D3748;stroke-width:1;stroke-linejoin:miter;stroke-miterlimit:10;"/></g><!--link U to UC_ViewEval--><g class="link" data-entity-1="ent0002" data-entity-2="ent0013" data-link-type="dependency" data-source-line="54" id="lnk19"><path d="M328.92,632.4578 C358.2,647.1978 399.08,669.9078 430.71,695.7578 C472.64,730.0178 465.11,759.1778 511.71,786.7578 C537.25,801.8778 563.1218,810.2741 591.6718,816.1241" fill="none" id="U-to-UC_ViewEval" style="stroke:#2D3748;stroke-width:1;"/><polygon fill="#2D3748" points="596.57,817.1278,588.5561,811.4026,591.6718,816.1241,586.9503,819.2398,596.57,817.1278" style="stroke:#2D3748;stroke-width:1;stroke-linejoin:miter;stroke-miterlimit:10;"/></g><!--link U to UC_Notif--><g class="link" data-entity-1="ent0002" data-entity-2="ent0014" data-link-type="dependency" data-source-line="55" id="lnk20"><path d="M328.88,618.8378 C389.42,625.4378 505.4394,638.0661 589.7694,647.2561" fill="none" id="U-to-UC_Notif" style="stroke:#2D3748;stroke-width:1;"/><polygon fill="#2D3748" points="594.74,647.7978,586.2263,642.8463,589.7694,647.2561,585.3596,650.7993,594.74,647.7978" style="stroke:#2D3748;stroke-width:1;stroke-linejoin:miter;stroke-miterlimit:10;"/></g><!--link U to UC_Export--><g class="link" data-entity-1="ent0002" data-entity-2="ent0015" data-link-type="dependency" data-source-line="56" id="lnk21"><path d="M328.76,630.2578 C372.25,647.9478 446.43,677.1078 511.71,697.7578 C541.09,707.0478 568.8517,714.6357 597.8517,721.9457" fill="none" id="U-to-UC_Export" style="stroke:#2D3748;stroke-width:1;"/><polygon fill="#2D3748" points="602.7,723.1678,594.9507,717.0893,597.8517,721.9457,592.9953,724.8467,602.7,723.1678" style="stroke:#2D3748;stroke-width:1;stroke-linejoin:miter;stroke-miterlimit:10;"/></g><!--link Responsable to UC_Create--><g class="link" data-entity-1="ent0003" data-entity-2="ent0023" data-link-type="dependency" data-source-line="67" id="lnk27"><path d="M92.88,200.4278 C108.75,184.2678 128.86,166.5278 150.04,154.7578 C171.41,142.8878 191.859,135.7595 214.999,129.9795" fill="none" id="Responsable-to-UC_Create" style="stroke:#2D3748;stroke-width:1;"/><polygon fill="#2D3748" points="219.85,128.7678,210.1489,127.0681,214.999,129.9795,212.0876,134.8296,219.85,128.7678" style="stroke:#2D3748;stroke-width:1;stroke-linejoin:miter;stroke-miterlimit:10;"/></g><!--link Responsable to UC_Fill--><g class="link" data-entity-1="ent0003" data-entity-2="ent0024" data-link-type="dependency" data-source-line="68" id="lnk28"><path d="M103.4,240.3478 C173.03,242.2978 313,243.8978 430.71,230.7578 C499.2,223.1078 571.7407,207.3458 623.2207,194.8658" fill="none" id="Responsable-to-UC_Fill" style="stroke:#2D3748;stroke-width:1;"/><polygon fill="#2D3748" points="628.08,193.6878,618.3909,191.9208,623.2207,194.8658,620.2757,199.6956,628.08,193.6878" style="stroke:#2D3748;stroke-width:1;stroke-linejoin:miter;stroke-miterlimit:10;"/></g><!--link Responsable to UC_Submit--><g class="link" data-entity-1="ent0003" data-entity-2="ent0026" data-link-type="dependency" data-source-line="69" id="lnk29"><path d="M103.57,229.9478 C136.42,223.3678 177.0372,215.2391 214.8072,207.6791" fill="none" id="Responsable-to-UC_Submit" style="stroke:#2D3748;stroke-width:1;"/><polygon fill="#2D3748" points="219.71,206.6978,210.1,204.542,214.8072,207.6791,211.6701,212.3864,219.71,206.6978" style="stroke:#2D3748;stroke-width:1;stroke-linejoin:miter;stroke-miterlimit:10;"/></g><!--link UC_Submit to UC_Fill--><g class="link" data-entity-1="ent0026" data-entity-2="ent0024" data-link-type="dependency" data-source-line="71" id="lnk30"><path d="M382.46,189.5278 C448.16,187.1978 531.2632,184.2555 595.6632,181.9655" fill="none" id="UC_Submit-to-UC_Fill" style="stroke:#2D3748;stroke-width:1;stroke-dasharray:7,7;"/><polygon fill="#2D3748" points="600.66,181.7878,591.5235,178.1102,595.6632,181.9655,591.8078,186.1051,600.66,181.7878" style="stroke:#2D3748;stroke-width:1;stroke-linejoin:miter;stroke-miterlimit:10;"/><text fill="#000000" font-family="sans-serif" font-size="13" lengthAdjust="spacing" textLength="63.0068" x="439.71" y="181.4047">&#171;include&#187;</text></g><!--link UC_Fill to UC_Upload--><g class="link" data-entity-1="ent0024" data-entity-2="ent0025" data-link-type="dependency" data-source-line="72" id="lnk31"><path d="M774.67,178.7578 C832.85,178.7578 904.13,178.7578 961.51,178.7578" fill="none" id="UC_Fill-to-UC_Upload" style="stroke:#2D3748;stroke-width:1;stroke-dasharray:7,7;"/><polygon fill="#2D3748" points="966.51,178.7578,957.51,174.7578,961.51,178.7578,957.51,182.7578,966.51,178.7578" style="stroke:#2D3748;stroke-width:1;stroke-linejoin:miter;stroke-miterlimit:10;"/><text fill="#000000" font-family="sans-serif" font-size="13" lengthAdjust="spacing" textLength="63.0068" x="872.71" y="174.8247">&#171;include&#187;</text></g><!--link Admin to UC_Users--><g class="link" data-entity-1="ent0004" data-entity-2="ent0033" data-link-type="dependency" data-source-line="84" id="lnk40"><path d="M87.76,955.2478 C96.25,968.2378 104.92,983.1578 111.04,997.7578 C140.82,1068.8578 96.62,1111.1878 150.04,1166.7578 C165.51,1182.8478 182.2176,1191.0924 203.7576,1196.6324" fill="none" id="Admin-to-UC_Users" style="stroke:#2D3748;stroke-width:1;"/><polygon fill="#2D3748" points="208.6,1197.8778,200.88,1191.7621,203.7576,1196.6324,198.8873,1199.5099,208.6,1197.8778" style="stroke:#2D3748;stroke-width:1;stroke-linejoin:miter;stroke-miterlimit:10;"/></g><!--link Admin to UC_Org--><g class="link" data-entity-1="ent0004" data-entity-2="ent0034" data-link-type="dependency" data-source-line="85" id="lnk41"><path d="M73.72,878.1878 C88,844.6878 113.21,797.3278 150.04,769.7578 C168.31,756.0878 186.3456,748.5654 208.2656,742.9654" fill="none" id="Admin-to-UC_Org" style="stroke:#2D3748;stroke-width:1;"/><polygon fill="#2D3748" points="213.11,741.7278,203.4,740.08,208.2656,742.9654,205.3802,747.8311,213.11,741.7278" style="stroke:#2D3748;stroke-width:1;stroke-linejoin:miter;stroke-miterlimit:10;"/></g><!--link Admin to UC_Validate--><g class="link" data-entity-1="ent0004" data-entity-2="ent0035" data-link-type="dependency" data-source-line="86" id="lnk42"><path d="M101.32,878.3078 C115.9,866.5078 132.91,854.3678 150.04,845.7578 C171.44,835.0078 191.417,828.2311 214.127,822.4011" fill="none" id="Admin-to-UC_Validate" style="stroke:#2D3748;stroke-width:1;"/><polygon fill="#2D3748" points="218.97,821.1578,209.2581,819.5213,214.127,822.4011,211.2473,827.2701,218.97,821.1578" style="stroke:#2D3748;stroke-width:1;stroke-linejoin:miter;stroke-miterlimit:10;"/></g><!--link Admin to UC_Reject--><g class="link" data-entity-1="ent0004" data-entity-2="ent0036" data-link-type="dependency" data-source-line="87" id="lnk43"><path d="M111.1,910.4778 C133.74,907.7178 156.1766,904.9818 182.6366,901.7618" fill="none" id="Admin-to-UC_Reject" style="stroke:#2D3748;stroke-width:1;"/><polygon fill="#2D3748" points="187.6,901.1578,178.1827,898.2743,182.6366,901.7618,179.1491,906.2157,187.6,901.1578" style="stroke:#2D3748;stroke-width:1;stroke-linejoin:miter;stroke-miterlimit:10;"/></g><!--link Admin to UC_ManageRef--><g class="link" data-entity-1="ent0004" data-entity-2="ent0037" data-link-type="dependency" data-source-line="88" id="lnk44"><path d="M111.1,928.2078 C146.58,936.0778 188.8787,945.4547 225.7887,953.6447" fill="none" id="Admin-to-UC_ManageRef" style="stroke:#2D3748;stroke-width:1;"/><polygon fill="#2D3748" points="230.67,954.7278,222.7502,948.8732,225.7887,953.6447,221.0172,956.6832,230.67,954.7278" style="stroke:#2D3748;stroke-width:1;stroke-linejoin:miter;stroke-miterlimit:10;"/></g><!--link Admin to UC_KPI--><g class="link" data-entity-1="ent0004" data-entity-2="ent0038" data-link-type="dependency" data-source-line="89" id="lnk45"><path d="M91.96,955.3478 C107.94,972.2578 128.4,991.1078 150.04,1003.7578 C168.14,1014.3478 184.3695,1021.0126 204.4995,1027.1826" fill="none" id="Admin-to-UC_KPI" style="stroke:#2D3748;stroke-width:1;"/><polygon fill="#2D3748" points="209.28,1028.6478,201.8473,1022.186,204.4995,1027.1826,199.5029,1029.8347,209.28,1028.6478" style="stroke:#2D3748;stroke-width:1;stroke-linejoin:miter;stroke-miterlimit:10;"/></g><!--link Admin to UC_Send--><g class="link" data-entity-1="ent0004" data-entity-2="ent0039" data-link-type="dependency" data-source-line="90" id="lnk46"><path d="M85.69,955.1578 C94.23,968.3878 103.47,983.4778 111.04,997.7578 C131.47,1036.2678 117.29,1058.9878 150.04,1087.7578 C165.64,1101.4578 180.8677,1109.0616 200.8277,1115.0016" fill="none" id="Admin-to-UC_Send" style="stroke:#2D3748;stroke-width:1;"/><polygon fill="#2D3748" points="205.62,1116.4278,198.1348,1110.0269,200.8277,1115.0016,195.8529,1117.6946,205.62,1116.4278" style="stroke:#2D3748;stroke-width:1;stroke-linejoin:miter;stroke-miterlimit:10;"/></g><!--link UC_Validate to UC_ViewEval--><g class="link" data-entity-1="ent0035" data-entity-2="ent0013" data-link-type="dependency" data-source-line="92" id="lnk47"><path d="M377.43,814.7978 C397.53,816.2678 418.86,817.6978 438.71,818.7578 C487.65,821.3778 537.082,823.1078 582.412,824.3778" fill="none" id="UC_Validate-to-UC_ViewEval" style="stroke:#2D3748;stroke-width:1;stroke-dasharray:7,7;"/><polygon fill="#2D3748" points="587.41,824.5178,578.5256,820.2673,582.412,824.3778,578.3015,828.2642,587.41,824.5178" style="stroke:#2D3748;stroke-width:1;stroke-linejoin:miter;stroke-miterlimit:10;"/><text fill="#000000" font-family="sans-serif" font-size="13" lengthAdjust="spacing" textLength="63.0068" x="439.71" y="814.8247">&#171;include&#187;</text></g><!--link Gouv to UC_Ranking--><g class="link" data-entity-1="ent0005" data-entity-2="ent0049" data-link-type="dependency" data-source-line="98" id="lnk50"><path d="M70.61,1092.0478 C83.99,1132.8278 109.83,1197.3778 150.04,1240.7578 C175.44,1268.1478 207.7067,1286.8985 237.1067,1300.5785" fill="none" id="Gouv-to-UC_Ranking" style="stroke:#2D3748;stroke-width:1;"/><polygon fill="#2D3748" points="241.64,1302.6878,235.1676,1295.2643,237.1067,1300.5785,231.7926,1302.5176,241.64,1302.6878" style="stroke:#2D3748;stroke-width:1;stroke-linejoin:miter;stroke-miterlimit:10;"/></g><!--link Visiteur to UC_Login--><g class="link" data-entity-1="ent0001" data-entity-2="ent0010" data-link-type="dependency" data-source-line="105" id="lnk53"><path d="M317.28,381.4978 C380.67,390.6478 539.7714,413.613 626.1714,426.093" fill="none" id="Visiteur-to-UC_Login" style="stroke:#2D3748;stroke-width:1;"/><polygon fill="#2D3748" points="631.12,426.8078,622.7843,421.5623,626.1714,426.093,621.6406,429.4801,631.12,426.8078" style="stroke:#2D3748;stroke-width:1;stroke-linejoin:miter;stroke-miterlimit:10;"/></g><!--link Visiteur to UC_Request--><g class="link" data-entity-1="ent0001" data-entity-2="ent0052" data-link-type="dependency" data-source-line="106" id="lnk54"><path d="M317.28,373.7578 C370.3,365.5678 488.7586,347.2613 578.2686,333.4313" fill="none" id="Visiteur-to-UC_Request" style="stroke:#2D3748;stroke-width:1;"/><polygon fill="#2D3748" points="583.21,332.6678,573.7048,330.089,578.2686,333.4313,574.9263,337.9952,583.21,332.6678" style="stroke:#2D3748;stroke-width:1;stroke-linejoin:miter;stroke-miterlimit:10;"/></g><?plantuml-src fLRDRjj64BxpAGRAGTOXiUEwiMie11HQDDJwHpLDdm8KQt95RqBkihkad3O9q5C1Nuk-X9w3Rz8dwUoAonz5IWj49-xi_7xppQo6yFeRViuG80YcyCyVVyCP8uaaMKOXfk0H1V4mB5ZA52cOu13CBkSNCtzMFMcZFRAa4IJLYbShIHgbU4YYWfPImMjum1jMa8IEqE2RadJKUyPpWic1UY2nU6GyWGL95UtSb8f6H57uw02y8T7xH8gInvv8XOHdqpV-aU_h6o5ZAclfeVVzuSaXIYTIYaShFFlk-EZ4-TnnZJNXpLR7_e7l-qTVE3v-TNpqGyz7ZfQ8nTfBLtToC9bw1rjz7_iJtqClJaeN1HG294iU2eYPf966st4ALgGKnehzJazVdhZZU_V_TNEyV--EzxMP-vRNvY_TSQG3dpvxPNxk-UxkxhNDDT6ML2gjeLYMfsp1gXKTxnjlDeopGGAOUBVJy2Re2PqrqeCxffWED01Ct1wqXuc9t_8EzX1ToekHjRGrejPRJihY0IzDFiPLsFfGeF9g5J5TNRN2YYXV45uehEVFlshkeYsYfy0BDOY3S62Zt52L2wx8VKgDtyxPgapYZ76c2acQGep8tf-B4a7ZDCCWvbOBMf3Wl7gwgfvk9XUpO78xkxxgGDxsOLHhEvq4uFdpJovMQgBPWtPklpSRuKq2E1k6jxCcb7TzUHbU1JOamZFgjqdpZ_04WmrymGqN5KGYoqfELMk6tzWU96wfHWF3V3kaWu2YFkVeXwx12RrVBaI2-7IKF7HRfgW12hcLIx5WgLMUcnFThew9oMgrm3Hq-sbZT4CNsmqmRwXMIvAMXkbM_uxHnobAkqOtDA9BmQHX1XUQNP4nKjRgIWkx9jCFkP3hC219hW-mDp_pzwSV8fgEhDrQJSzxYBroMqYQeosw4UY2caEJRIDPPz8Swm3_JO1WNZrvkEj_3gSR0zfjVPTqyL38X23XCxhHQGyxiHjXJr8Sa3w-UeNe7YhTH1s1Dj3wBEqruqV1U2ofwKKkAOvKenhcgI1nZtEYp6XHe7ewt99AKDvdpC3VdoQta-UM6vFI5ddjpca-uSMBnW1EOJncF4hBcBgkOwMrnZhr3PqkyflBfGVukQRz6h-otOOjBWftzGxzfeUDzhLCkhftk2xZhyoBllwYd--evlu-DYaZN5j7GjOlM3kOxr2mDQljatn9E6x2dVECPeLk1Ydrvhx7zzOQ_ZIVzKQJByLlTK7TOMv8GNciAM6tgTj2s1Dfd7g21egUjAwp9sjBwObreZs1ISNfkBPqiNF_5SBqNvkFEq6BKg9K-oRfZ0d7_p29ng1-HDokUEik2U5k5ipqyxxpsR2FEknnNEtTXthpfJYph4a9HCY5-g-8VZ-olA0jWtujgJBZs_ZkBT5DgJNu5m00?></g></svg>