<svg xmlns="http://www.w3.org/2000/svg" xmlns:xlink="http://www.w3.org/1999/xlink" contentStyleType="text/css" data-diagram-type="DESCRIPTION" height="961px" preserveAspectRatio="none" style="width:702px;height:961px;background:#FFFFFF;" version="1.1" viewBox="0 0 702 961" width="702px" zoomAndPan="magnify"><title>Cas d&#8217;utilisation &#8212; Utilisateur</title><defs/><g><g class="title" data-source-line="1"><text fill="#000000" font-family="Arial" font-size="14" font-weight="bold" lengthAdjust="spacing" textLength="198.3652" x="244.8174" y="23.1318">Cas d&#8217;utilisation &#8212; Utilisateur</text></g><!--cluster Plateforme SSE--><g class="cluster" data-entity="Plateforme SSE" data-source-line="14" data-uid="ent0003" id="cluster_Plateforme SSE"><rect fill="none" height="911" rx="2.5" ry="2.5" style="stroke:#181818;stroke-width:1;" width="581" x="115" y="44.0986"/><text fill="#000000" font-family="Arial" font-size="14" font-weight="bold" lengthAdjust="spacing" textLength="104.2617" x="353.3691" y="59.2305">Plateforme SSE</text></g><!--entity UC_Login--><g class="entity" data-entity="UC_Login" data-source-line="15" data-uid="ent0004" id="entity_UC_Login"><ellipse cx="244.1298" cy="180.1246" fill="#F1F1F1" rx="60.6298" ry="14.526" style="stroke:#181818;stroke-width:0.5;"/><text fill="#000000" font-family="Arial" font-size="14" lengthAdjust="spacing" textLength="82.4961" x="202.8817" y="184.6739">Se connecter</text></g><!--entity UC_RequestAccount--><g class="entity" data-entity="UC_RequestAccount" data-source-line="16" data-uid="ent0005" id="entity_UC_RequestAccount"><ellipse cx="244.0803" cy="253.3051" fill="#F1F1F1" rx="89.5803" ry="23.7065" style="stroke:#181818;stroke-width:0.5;"/><text fill="#000000" font-family="Arial" font-size="14" lengthAdjust="spacing" textLength="134.627" x="176.7668" y="252.881">Demander un compte</text><text fill="#000000" font-family="Arial" font-size="14" lengthAdjust="spacing" textLength="65.3652" x="211.3977" y="268.9796">organisme</text></g><!--entity UC_Activate--><g class="entity" data-entity="UC_Activate" data-source-line="17" data-uid="ent0006" id="entity_UC_Activate"><ellipse cx="244.0058" cy="336.0448" fill="#F1F1F1" rx="85.0058" ry="23.9462" style="stroke:#181818;stroke-width:0.5;"/><text fill="#000000" font-family="Arial" font-size="14" lengthAdjust="spacing" textLength="126.0547" x="180.9785" y="335.2428">Activer ou r&#233;cup&#233;rer</text><text fill="#000000" font-family="Arial" font-size="14" lengthAdjust="spacing" textLength="72.3721" x="207.8198" y="351.3415">son compte</text></g><!--entity UC_Profile--><g class="entity" data-entity="UC_Profile" data-source-line="18" data-uid="ent0007" id="entity_UC_Profile"><ellipse cx="243.8947" cy="420.0776" fill="#F1F1F1" rx="112.8947" ry="24.9789" style="stroke:#181818;stroke-width:0.5;"/><text fill="#000000" font-family="Arial" font-size="14" lengthAdjust="spacing" textLength="100.3721" x="193.7087" y="413.123">G&#233;rer son profil,</text><text fill="#000000" font-family="Arial" font-size="14" lengthAdjust="spacing" textLength="179.7783" x="154.0056" y="429.2216">sa langue et ses notifications</text></g><!--entity UC_Dashboard--><g class="entity" data-entity="UC_Dashboard" data-source-line="19" data-uid="ent0008" id="entity_UC_Dashboard"><ellipse cx="244.2058" cy="504.0784" fill="#F1F1F1" rx="82.2058" ry="23.4798" style="stroke:#181818;stroke-width:0.5;"/><text fill="#000000" font-family="Arial" font-size="14" lengthAdjust="spacing" textLength="124.5234" x="181.9441" y="504.0179">Consulter le tableau</text><text fill="#000000" font-family="Arial" font-size="14" lengthAdjust="spacing" textLength="47.4824" x="220.4646" y="520.1165">de bord</text></g><!--entity UC_Open--><g class="entity" data-entity="UC_Open" data-source-line="20" data-uid="ent0009" id="entity_UC_Open"><ellipse cx="244.1205" cy="588.2281" fill="#F1F1F1" rx="68.6205" ry="25.6294" style="stroke:#181818;stroke-width:0.5;"/><text fill="#000000" font-family="Arial" font-size="14" lengthAdjust="spacing" textLength="93.3652" x="197.4379" y="584.9231">Cr&#233;er ou ouvrir</text><text fill="#000000" font-family="Arial" font-size="14" lengthAdjust="spacing" textLength="91.0752" x="198.583" y="601.0217">une &#233;valuation</text></g><!--entity UC_Fill--><g class="entity" data-entity="UC_Fill" data-source-line="21" data-uid="ent0010" id="entity_UC_Fill"><ellipse cx="243.8126" cy="105.0932" fill="#F1F1F1" rx="112.8126" ry="25.4945" style="stroke:#181818;stroke-width:0.5;"/><text fill="#000000" font-family="Arial" font-size="14" lengthAdjust="spacing" textLength="149.4199" x="169.1026" y="101.2057">Renseigner les niveaux,</text><text fill="#000000" font-family="Arial" font-size="14" lengthAdjust="spacing" textLength="157.1787" x="165.2232" y="117.3043">commentaires et preuves</text></g><!--entity UC_Proof--><g class="entity" data-entity="UC_Proof" data-source-line="22" data-uid="ent0011" id="entity_UC_Proof"><ellipse cx="589.5986" cy="109.9696" fill="#F1F1F1" rx="71.0986" ry="23.8709" style="stroke:#181818;stroke-width:0.5;"/><text fill="#000000" font-family="Arial" font-size="14" lengthAdjust="spacing" textLength="105.0547" x="537.0713" y="109.2855">Ajouter un fichier</text><text fill="#000000" font-family="Arial" font-size="14" lengthAdjust="spacing" textLength="57.5723" x="560.8125" y="125.3841">justificatif</text></g><!--entity UC_Submit--><g class="entity" data-entity="UC_Submit" data-source-line="23" data-uid="ent0012" id="entity_UC_Submit"><ellipse cx="244.1123" cy="673.9431" fill="#F1F1F1" rx="51.6123" ry="25.3445" style="stroke:#181818;stroke-width:0.5;"/><text fill="#000000" font-family="Arial" font-size="14" lengthAdjust="spacing" textLength="64.5859" x="211.8193" y="669.8399">Soumettre</text><text fill="#000000" font-family="Arial" font-size="14" lengthAdjust="spacing" textLength="70.0479" x="209.0883" y="685.9386">l&#8217;&#233;valuation</text></g><!--entity UC_Completeness--><g class="entity" data-entity="UC_Completeness" data-source-line="24" data-uid="ent0013" id="entity_UC_Completeness"><ellipse cx="589.2594" cy="673.8505" fill="#F1F1F1" rx="81.7594" ry="18.7519" style="stroke:#181818;stroke-width:0.5;"/><text fill="#000000" font-family="Arial" font-size="14" lengthAdjust="spacing" textLength="135.3994" x="521.5597" y="678.3998">V&#233;rifier la compl&#233;tude</text></g><!--entity UC_Resubmit--><g class="entity" data-entity="UC_Resubmit" data-source-line="25" data-uid="ent0014" id="entity_UC_Resubmit"><ellipse cx="243.9107" cy="760.2588" fill="#F1F1F1" rx="54.4107" ry="25.1602" style="stroke:#181818;stroke-width:0.5;"/><text fill="#000000" font-family="Arial" font-size="14" lengthAdjust="spacing" textLength="66.1309" x="210.8453" y="755.8887">Corriger et</text><text fill="#000000" font-family="Arial" font-size="14" lengthAdjust="spacing" textLength="74.6963" x="206.5626" y="771.9874">resoumettre</text></g><!--entity UC_Corrections--><g class="entity" data-entity="UC_Corrections" data-source-line="26" data-uid="ent0015" id="entity_UC_Corrections"><ellipse cx="589.7105" cy="759.9904" fill="#F1F1F1" rx="90.7105" ry="23.3917" style="stroke:#181818;stroke-width:0.5;"/><text fill="#000000" font-family="Arial" font-size="14" lengthAdjust="spacing" textLength="138.4893" x="520.4658" y="760.0727">V&#233;rifier les corrections</text><text fill="#000000" font-family="Arial" font-size="14" lengthAdjust="spacing" textLength="45.9102" x="566.7554" y="776.1714">trait&#233;es</text></g><!--entity UC_Reference--><g class="entity" data-entity="UC_Reference" data-source-line="27" data-uid="ent0016" id="entity_UC_Reference"><ellipse cx="244.0709" cy="845.3366" fill="#F1F1F1" rx="66.5709" ry="24.738" style="stroke:#181818;stroke-width:0.5;"/><text fill="#000000" font-family="Arial" font-size="14" lengthAdjust="spacing" textLength="74.7031" x="206.7193" y="840.3453">Consulter le</text><text fill="#000000" font-family="Arial" font-size="14" lengthAdjust="spacing" textLength="94.1582" x="196.9918" y="856.4439">r&#233;f&#233;rentiel SSE</text></g><!--entity UC_Export--><g class="entity" data-entity="UC_Export" data-source-line="28" data-uid="ent0017" id="entity_UC_Export"><ellipse cx="244.0731" cy="922.2132" fill="#F1F1F1" rx="73.5731" ry="17.1146" style="stroke:#181818;stroke-width:0.5;"/><text fill="#000000" font-family="Arial" font-size="14" lengthAdjust="spacing" textLength="115.9443" x="186.1009" y="926.7626">Exporter le rapport</text></g><!--entity Utilisateur--><g class="entity" data-entity="Utilisateur" data-source-line="12" data-uid="ent0002" id="entity_Utilisateur"><ellipse cx="37.1206" cy="474.5986" fill="#F1F1F1" rx="8" ry="8" style="stroke:#181818;stroke-width:0.5;"/><path d="M37.1206,482.5986 L37.1206,509.5986 M24.1206,490.5986 L50.1206,490.5986 M37.1206,509.5986 L24.1206,524.5986 M37.1206,509.5986 L50.1206,524.5986" fill="none" style="stroke:#181818;stroke-width:0.5;"/><text fill="#000000" font-family="Arial" font-size="14" lengthAdjust="spacing" textLength="62.2412" x="6" y="539.2305">Utilisateur</text></g><!--link Utilisateur to UC_Login--><g class="link" data-entity-1="Utilisateur" data-entity-2="UC_Login" data-source-line="31" data-uid="lnk18" id="link_Utilisateur_UC_Login"><path d="M42.05,465.9286 C50.33,395.1686 71.48,247.5786 107,212.0986 C126.91,192.2086 150.745,184.5124 177.365,181.2324" fill="none" id="Utilisateur-to-UC_Login" style="stroke:#000000;stroke-width:1.4;"/><polygon fill="#000000" points="183.32,180.4986,173.8984,177.6293,178.3575,181.1101,174.8767,185.5692,183.32,180.4986" style="stroke:#000000;stroke-width:1.4;"/></g><!--link Utilisateur to UC_RequestAccount--><g class="link" data-entity-1="Utilisateur" data-entity-2="UC_RequestAccount" data-source-line="32" data-uid="lnk19" id="link_Utilisateur_UC_RequestAccount"><path d="M40.15,465.9986 C44.85,419.1486 59.75,340.1886 107,294.0986 C122.36,279.1186 137.2252,271.2765 157.7652,265.2165" fill="none" id="Utilisateur-to-UC_RequestAccount" style="stroke:#000000;stroke-width:1.4;"/><polygon fill="#000000" points="163.52,263.5186,153.756,262.2289,158.7244,264.9335,156.0198,269.9019,163.52,263.5186" style="stroke:#000000;stroke-width:1.4;"/></g><!--link Utilisateur to UC_Activate--><g class="link" data-entity-1="Utilisateur" data-entity-2="UC_Activate" data-source-line="33" data-uid="lnk20" id="link_Utilisateur_UC_Activate"><path d="M49.86,465.8286 C60.52,437.4986 78.87,399.9786 107,377.0986 C124.6,362.7786 141.3332,355.0798 162.9632,349.0098" fill="none" id="Utilisateur-to-UC_Activate" style="stroke:#000000;stroke-width:1.4;"/><polygon fill="#000000" points="168.74,347.3886,158.994,345.9691,163.926,348.7396,161.1555,353.6716,168.74,347.3886" style="stroke:#000000;stroke-width:1.4;"/></g><!--link Utilisateur to UC_Profile--><g class="link" data-entity-1="Utilisateur" data-entity-2="UC_Profile" data-source-line="34" data-uid="lnk21" id="link_Utilisateur_UC_Profile"><path d="M68.1,484.1686 C79.91,476.8986 93.77,469.0186 107,463.0986 C127.34,453.9886 144.462,447.7547 165.532,441.1847" fill="none" id="Utilisateur-to-UC_Profile" style="stroke:#000000;stroke-width:1.4;"/><polygon fill="#000000" points="171.26,439.3986,161.4773,438.2591,166.4867,440.887,163.8587,445.8964,171.26,439.3986" style="stroke:#000000;stroke-width:1.4;"/></g><!--link Utilisateur to UC_Dashboard--><g class="link" data-entity-1="Utilisateur" data-entity-2="UC_Dashboard" data-source-line="35" data-uid="lnk22" id="link_Utilisateur_UC_Dashboard"><path d="M68.25,504.0986 C92.86,504.0986 122.79,504.0986 155.67,504.0986" fill="none" id="Utilisateur-to-UC_Dashboard" style="stroke:#000000;stroke-width:1.4;"/><polygon fill="#000000" points="161.67,504.0986,152.67,500.0986,156.67,504.0986,152.67,508.0986,161.67,504.0986" style="stroke:#000000;stroke-width:1.4;"/></g><!--link Utilisateur to UC_Open--><g class="link" data-entity-1="Utilisateur" data-entity-2="UC_Open" data-source-line="36" data-uid="lnk23" id="link_Utilisateur_UC_Open"><path d="M68.1,524.0286 C79.91,531.2986 93.77,539.1786 107,545.0986 C132.65,556.5886 156.529,564.6721 181.579,571.9621" fill="none" id="Utilisateur-to-UC_Open" style="stroke:#000000;stroke-width:1.4;"/><polygon fill="#000000" points="187.34,573.6386,179.8162,567.2831,182.5392,572.2415,177.5808,574.9645,187.34,573.6386" style="stroke:#000000;stroke-width:1.4;"/></g><!--link Utilisateur to UC_Fill--><g class="link" data-entity-1="Utilisateur" data-entity-2="UC_Fill" data-source-line="37" data-uid="lnk24" id="link_Utilisateur_UC_Fill"><path d="M40.54,465.9686 C46.75,384.0386 65.32,194.8586 107,148.0986 C118.62,135.0686 128.5566,128.1199 144.9666,121.7499" fill="none" id="Utilisateur-to-UC_Fill" style="stroke:#000000;stroke-width:1.4;"/><polygon fill="#000000" points="150.56,119.5786,140.7225,119.1066,145.8989,121.388,143.6174,126.5644,150.56,119.5786" style="stroke:#000000;stroke-width:1.4;"/></g><!--link Utilisateur to UC_Submit--><g class="link" data-entity-1="Utilisateur" data-entity-2="UC_Submit" data-source-line="38" data-uid="lnk25" id="link_Utilisateur_UC_Submit"><path d="M49.95,542.2586 C60.65,570.5386 79.03,608.0286 107,631.0986 C131.64,651.4286 160.0993,660.9982 188.1093,666.6682" fill="none" id="Utilisateur-to-UC_Submit" style="stroke:#000000;stroke-width:1.4;"/><polygon fill="#000000" points="193.99,667.8586,185.9625,662.1525,189.0894,666.8666,184.3753,669.9935,193.99,667.8586" style="stroke:#000000;stroke-width:1.4;"/></g><!--link Utilisateur to UC_Resubmit--><g class="link" data-entity-1="Utilisateur" data-entity-2="UC_Resubmit" data-source-line="39" data-uid="lnk26" id="link_Utilisateur_UC_Resubmit"><path d="M40.05,542.2186 C44.63,589.5686 59.42,669.8486 107,717.0986 C129.14,739.0886 156.5321,748.7467 184.6321,753.9967" fill="none" id="Utilisateur-to-UC_Resubmit" style="stroke:#000000;stroke-width:1.4;"/><polygon fill="#000000" points="190.53,755.0986,182.4177,749.5138,185.615,754.1804,180.9485,757.3777,190.53,755.0986" style="stroke:#000000;stroke-width:1.4;"/></g><!--link Utilisateur to UC_Reference--><g class="link" data-entity-1="Utilisateur" data-entity-2="UC_Reference" data-source-line="40" data-uid="lnk27" id="link_Utilisateur_UC_Reference"><path d="M42.13,542.2386 C50.61,613.8086 72.17,764.4186 107,802.0986 C125.66,822.2886 147.8423,831.7495 173.6323,837.4695" fill="none" id="Utilisateur-to-UC_Reference" style="stroke:#000000;stroke-width:1.4;"/><polygon fill="#000000" points="179.49,838.7686,171.5696,832.9148,174.6086,837.686,169.8374,840.725,179.49,838.7686" style="stroke:#000000;stroke-width:1.4;"/></g><!--link Utilisateur to UC_Export--><g class="link" data-entity-1="Utilisateur" data-entity-2="UC_Export" data-source-line="41" data-uid="lnk28" id="link_Utilisateur_UC_Export"><path d="M39.77,542.3286 C44.57,629.0986 60.73,837.2886 107,887.0986 C123.59,904.9586 142.0831,913.0492 165.6431,917.6892" fill="none" id="Utilisateur-to-UC_Export" style="stroke:#000000;stroke-width:1.4;"/><polygon fill="#000000" points="171.53,918.8486,163.4726,913.1849,166.6242,917.8825,161.9267,921.0342,171.53,918.8486" style="stroke:#000000;stroke-width:1.4;"/></g><!--reverse link UC_Fill to UC_Proof--><g class="link" data-entity-1="UC_Fill" data-entity-2="UC_Proof" data-source-line="43" data-uid="lnk30" id="link_UC_Fill_UC_Proof"><path d="M362.9994,106.8155 C416.1494,107.5855 472.03,108.3986 518.43,109.0786" fill="none" id="UC_Fill-backto-UC_Proof" style="stroke:#000000;stroke-width:1.4;stroke-dasharray:7,7;"/><polygon fill="#000000" points="357,106.7286,365.9411,110.8586,361.9995,106.8011,366.057,102.8594,357,106.7286" style="stroke:#000000;stroke-width:1.4;"/><text fill="#000000" font-family="Arial" font-size="13" lengthAdjust="spacing" textLength="53.4917" x="401.7205" y="90.2925">&#171;extend&#187;</text><text fill="#000000" font-family="Arial" font-size="13" lengthAdjust="spacing" textLength="80.9326" x="388" y="105.2412">[fichier ajout&#233;]</text></g><!--link UC_Submit to UC_Completeness--><g class="link" data-entity-1="UC_Submit" data-entity-2="UC_Completeness" data-source-line="44" data-uid="lnk31" id="link_UC_Submit_UC_Completeness"><path d="M295.68,674.0986 C351.39,674.0986 435.67,674.0986 501.28,674.0986" fill="none" id="UC_Submit-to-UC_Completeness" style="stroke:#000000;stroke-width:1.4;stroke-dasharray:7,7;"/><polygon fill="#000000" points="507.28,674.0986,498.28,670.0986,502.28,674.0986,498.28,678.0986,507.28,674.0986" style="stroke:#000000;stroke-width:1.4;"/><text fill="#000000" font-family="Arial" font-size="13" lengthAdjust="spacing" textLength="55.6563" x="400.5" y="671.2925">&#171;include&#187;</text></g><!--link UC_Resubmit to UC_Corrections--><g class="link" data-entity-1="UC_Resubmit" data-entity-2="UC_Corrections" data-source-line="45" data-uid="lnk32" id="link_UC_Resubmit_UC_Corrections"><path d="M298.67,760.0986 C352.17,760.0986 429.28,760.0986 492.81,760.0986" fill="none" id="UC_Resubmit-to-UC_Corrections" style="stroke:#000000;stroke-width:1.4;stroke-dasharray:7,7;"/><polygon fill="#000000" points="498.81,760.0986,489.81,756.0986,493.81,760.0986,489.81,764.0986,498.81,760.0986" style="stroke:#000000;stroke-width:1.4;"/><text fill="#000000" font-family="Arial" font-size="13" lengthAdjust="spacing" textLength="55.6563" x="400.5" y="757.2925">&#171;include&#187;</text></g><!--SRC=[VLHBRjim4Dth58Ei6mC5kYe20uQJT5EqGTnqKnS5JOqa9XIf3eTEYg903j5DZ-1p-2OvIKQI9Kk1cgNuvlFcpHknOOkmL07IfyT_aOqrGR7n3fuU_yBDuHiZ9Od5Z84zaCaBXjGGwZem2NV6LOfK2QLtNXVaImIcY0Ca52hrzyRba2aRXiX6wRkSV7JfqbjFS5yO7k8fPYfQllIEFoafl22Zx02l95_bkE9VCaTDIRdS3WiiYFnzMtjZ9VWbzAKm-ivX2F1szYv9b6Q970tULuMJAojlcISXibfTdC3l1206r2e8k4BGtZc9HZe1aVHc-UEZpuqR1frZgLoA1D59T5anhfsdN3aJIkoohl5dnC0BhKKO7gOlHFEjPFi8jD_fMErtXBHsmNVbkXfDfB0TPdzeeg4EhiXdnhwHJ0LMfei8o10mWFDiCgCR5uIksbKJFYgs55Ws8_L46LORYogkPJJOU4gxl7CLYerNb8uoXNexWuzRCa8_EeJzRgjiRDfssPyh78btZIwWoLtJKvYA52e-o10oUecEbPWor7DKX76BFVjBO-r8nLiVkTs1J5gOMi7R6Bgviy7KFXkjsCSIcKcMPkLU9YYlugOqevLz5T6bSCrPDJko-nt7j5_Kidv2njg3Otr9JatIaDTEvkfQ7qqINkibGcYfq1vfM3icPLXq3yU-FVg_jKhV_IwhJUFOe6qzttNFK9xro18N3vMdWoD8LVL75zz2oPya6TmMd9xEZrSo0RmuX8c8tkOJM6VQ2UZeomcmiTt4UsEZYVV3pYVvXrUmJi49y21NqfaGPh6QzIJWFPoTuODu9ftFr-xRmSIWQb_lTz-JdXJCvB_hsioXqPeAncahHfpFam7LSKPlaHS9pm00]--></g></svg>